<svg xmlns="http://www.w3.org/2000/svg" viewBox="0 0 50 50" enable-background="new 0 0 50 50">
    <path style="text-indent:0;text-align:start;line-height:normal;text-transform:none;block-progression:tb;-inkscape-font-specification:Bitstream Vera Sans" d="M 2 0 C 1.4777778 0 0.93953051 0.18546949 0.5625 0.5625 C 0.18546949 0.93953051 0 1.4777778 0 2 L 0 48 C 0 48.522222 0.18546949 49.060469 0.5625 49.4375 C 0.93953051 49.814531 1.4777778 50 2 50 L 48 50 C 48.522222 50 49.060469 49.814531 49.4375 49.4375 C 49.814531 49.060469 50 48.522222 50 48 L 50 2 C 50 1.4777778 49.814531 0.93953051 49.4375 0.5625 C 49.060469 0.18546949 48.522222 0 48 0 L 2 0 z M 2 2 L 48 2 L 48 48 L 2 48 L 2 2 z M 24.09375 10 L 24.09375 12.8125 C 18.49375 13.1125 17.5 17.2875 17.5 19.1875 C 17.5 28.5875 31.1875 23.5875 31.1875 30.6875 C 31.1875 31.5875 30.99375 35.59375 25.09375 35.59375 C 24.89375 35.59375 18.8 35.6125 19 29.3125 L 16.90625 29.3125 C 17.10625 36.0125 21.39375 36.8875 24.09375 37.1875 L 24.09375 40 L 26.09375 40 L 26.09375 37.1875 C 32.79375 36.6875 33.1875 31.6875 33.1875 30.6875 C 33.1875 21.6875 19.5 26.30625 19.5 19.40625 C 19.5 17.10625 20.39375 14.40625 25.09375 14.40625 C 29.89375 14.40625 30.49375 18.20625 30.59375 19.90625 L 32.6875 19.90625 C 32.8875 17.10625 30.89375 13.0125 26.09375 12.8125 L 26.09375 10 L 24.09375 10 z" color="#000" overflow="visible" enable-background="accumulate" font-family="Bitstream Vera Sans"/>
</svg>